<svg xmlns="http://www.w3.org/2000/svg" viewBox="0 0 900 90" width="900" height="90"><g><rect x="0" y="0" width="900" height="90" fill="#101010"/><g id="data"/><g id="strings"/><g id="functions"/><g id="featuremap"><rect x="0" y="0" width="3" height="90" fill="#7ad79c"/><rect x="3" y="0" width="2" height="90" fill="#92929a"/><rect x="5" y="0" width="4" height="90" fill="#7ad79c"/><rect x="9" y="0" width="1" height="90" fill="#92929a"/><rect x="11" y="0" width="7" height="90" fill="#e3cf7e"/><rect x="18" y="0" width="2" height="90" fill="#7ad79c"/><rect x="29" y="0" width="3" height="90" fill="#e3cf7e"/><rect x="36" y="0" width="2" height="90" fill="#7ad79c"/><rect x="52" y="0" width="2" height="90" fill="#e3cf7e"/><rect x="62" y="0" width="12" height="90" fill="#e3cf7e"/><rect x="102" y="0" width="2" height="90" fill="#7ad79c"/><rect x="108" y="0" width="2" height="90" fill="#e3cf7e"/><rect x="124" y="0" width="2" height="90" fill="#7ad79c"/><rect x="142" y="0" width="2" height="90" fill="#7ad79c"/><rect x="166" y="0" width="2" height="90" fill="#7ad79c"/><rect x="170" y="0" width="2" height="90" fill="#7ad79c"/><rect x="174" y="0" width="1" height="90" fill="#96a3e3"/><rect x="191" y="0" width="1" height="90" fill="#96a3e3"/><rect x="209" y="0" width="1" height="90" fill="#7ad79c"/><rect x="211" y="0" width="2" height="90" fill="#7ad79c"/><rect x="214" y="0" width="1" height="90" fill="#7ad79c"/><rect x="215" y="0" width="2" height="90" fill="#e3cf7e"/><rect x="220" y="0" width="1" height="90" fill="#e3cf7e"/><rect x="232" y="0" width="1" height="90" fill="#7ad79c"/><rect x="248" y="0" width="8" height="90" fill="#e3cf7e"/><rect x="261" y="0" width="4" height="90" fill="#e3cf7e"/><rect x="282" y="0" width="2" height="90" fill="#e3cf7e"/><rect x="286" y="0" width="2" height="90" fill="#e3cf7e"/><rect x="289" y="0" width="1" height="90" fill="#e3cf7e"/><rect x="291" y="0" width="2" height="90" fill="#e3cf7e"/><rect x="294" y="0" width="1" height="90" fill="#e3cf7e"/><rect x="300" y="0" width="2" height="90" fill="#e3cf7e"/><rect x="303" y="0" width="3" height="90" fill="#e3cf7e"/><rect x="320" y="0" width="2" height="90" fill="#e3cf7e"/><rect x="346" y="0" width="1" height="90" fill="#7ad79c"/><rect x="350" y="0" width="2" height="90" fill="#7ad79c"/><rect x="372" y="0" width="1" height="90" fill="#7ad79c"/><rect x="380" y="0" width="4" height="90" fill="#7ad79c"/><rect x="384" y="0" width="5" height="90" fill="#e3cf7e"/><rect x="389" y="0" width="2" height="90" fill="#7ad79c"/><rect x="391" y="0" width="6" height="90" fill="#e3cf7e"/><rect x="399" y="0" width="4" height="90" fill="#e3cf7e"/><rect x="404" y="0" width="1" height="90" fill="#7ad79c"/><rect x="477" y="0" width="4" height="90" fill="#e3cf7e"/><rect x="498" y="0" width="4" height="90" fill="#e3cf7e"/><rect x="509" y="0" width="4" height="90" fill="#e3cf7e"/><rect x="517" y="0" width="3" height="90" fill="#e3cf7e"/><rect x="525" y="0" width="2" height="90" fill="#e3cf7e"/><rect x="529" y="0" width="1" height="90" fill="#e3cf7e"/><rect x="536" y="0" width="1" height="90" fill="#e3cf7e"/><rect x="548" y="0" width="1" height="90" fill="#e3cf7e"/><rect x="594" y="0" width="1" height="90" fill="#e3cf7e"/><rect x="595" y="0" width="8" height="90" fill="#e3a86b"/><rect x="639" y="0" width="5" height="90" fill="#92929a"/><rect x="644" y="0" width="1" height="90" fill="#7ad79c"/><rect x="646" y="0" width="9" height="90" fill="#7ad79c"/><rect x="655" y="0" width="2" height="90" fill="#96a3e3"/><rect x="657" y="0" width="7" height="90" fill="#7ad79c"/><rect x="664" y="0" width="2" height="90" fill="#96a3e3"/><rect x="666" y="0" width="1" height="90" fill="#7ad79c"/><rect x="667" y="0" width="2" height="90" fill="#96a3e3"/><rect x="669" y="0" width="1" height="90" fill="#7ad79c"/><rect x="670" y="0" width="5" height="90" fill="#92929a"/><rect x="678" y="0" width="14" height="90" fill="#7ad79c"/><rect x="692" y="0" width="1" height="90" fill="#92929a"/><rect x="733" y="0" width="9" height="90" fill="#92929a"/><rect x="742" y="0" width="26" height="90" fill="#7ad79c"/><rect x="768" y="0" width="8" height="90" fill="#92929a"/><rect x="816" y="0" width="10" height="90" fill="#92929a"/><rect x="879" y="0" width="3" height="90" fill="#92929a"/><rect x="882" y="0" width="5" height="90" fill="#7ad79c"/><rect x="891" y="0" width="8" height="90" fill="#e37c12"/><rect x="899" y="0" width="1" height="90" fill="#92929a"/></g></g></svg>