<svg xmlns="http://www.w3.org/2000/svg" viewBox="0 0 900 90" width="900" height="90"><g><rect x="0" y="0" width="900" height="90" fill="#101010"/><g id="data"/><g id="strings"/><g id="functions"/><g id="featuremap"><rect x="0" y="0" width="3" height="90" fill="#7ad79c"/><rect x="3" y="0" width="2" height="90" fill="#92929a"/><rect x="5" y="0" width="4" height="90" fill="#7ad79c"/><rect x="9" y="0" width="1" height="90" fill="#92929a"/><rect x="11" y="0" width="164" height="90" fill="#e3cf7e"/><rect x="180" y="0" width="1" height="90" fill="#e3cf7e"/><rect x="188" y="0" width="1" height="90" fill="#92929a"/><rect x="190" y="0" width="2" height="90" fill="#e3cf7e"/><rect x="204" y="0" width="13" height="90" fill="#e3cf7e"/><rect x="219" y="0" width="51" height="90" fill="#e3cf7e"/><rect x="272" y="0" width="7" height="90" fill="#e3cf7e"/><rect x="280" y="0" width="30" height="90" fill="#e3cf7e"/><rect x="311" y="0" width="245" height="90" fill="#e3cf7e"/><rect x="586" y="0" width="6" height="90" fill="#92929a"/><rect x="594" y="0" width="1" height="90" fill="#e3cf7e"/><rect x="595" y="0" width="8" height="90" fill="#e3a86b"/><rect x="639" y="0" width="5" height="90" fill="#92929a"/><rect x="644" y="0" width="1" height="90" fill="#7ad79c"/><rect x="645" y="0" width="1" height="90" fill="#92929a"/><rect x="646" y="0" width="9" height="90" fill="#7ad79c"/><rect x="655" y="0" width="2" height="90" fill="#96a3e3"/><rect x="657" y="0" width="7" height="90" fill="#7ad79c"/><rect x="664" y="0" width="2" height="90" fill="#96a3e3"/><rect x="666" y="0" width="1" height="90" fill="#7ad79c"/><rect x="667" y="0" width="2" height="90" fill="#96a3e3"/><rect x="669" y="0" width="1" height="90" fill="#7ad79c"/><rect x="670" y="0" width="5" height="90" fill="#92929a"/><rect x="676" y="0" width="1" height="90" fill="#92929a"/><rect x="678" y="0" width="14" height="90" fill="#7ad79c"/><rect x="692" y="0" width="1" height="90" fill="#92929a"/><rect x="733" y="0" width="9" height="90" fill="#92929a"/><rect x="742" y="0" width="26" height="90" fill="#7ad79c"/><rect x="768" y="0" width="8" height="90" fill="#92929a"/><rect x="816" y="0" width="13" height="90" fill="#92929a"/><rect x="831" y="0" width="2" height="90" fill="#92929a"/><rect x="843" y="0" width="39" height="90" fill="#92929a"/><rect x="882" y="0" width="5" height="90" fill="#7ad79c"/><rect x="891" y="0" width="8" height="90" fill="#e37c12"/><rect x="899" y="0" width="1" height="90" fill="#92929a"/></g></g></svg>